# xmcd
#
# Track frame offsets:
#         150
#       17622
#       40436
#       55853
#       78185
#      102511
#      133822
#      153142
#      172424
#      191958
#
# Disc length:   2809 seconds
#
# Revision: 0
# Processed by: cddbd v1.5.2PL0 Copyright (c) Steve Scherf et al.
# Submitted via: libcddb 1.2.2
#
DISCID=870af70a
DTITLE=Passion Play - Passion Play
DYEAR=2003
DGENRE=blues
TTITLE0=Tűnj el az életemből
TTITLE1=Színház
TTITLE2=Éjszakai ragyogás
TTITLE3=Magad köré falakat
TTITLE4=Zajlik az élet
TTITLE5=Két torony
TTITLE6=Fekete-fehér
TTITLE7=Számvetés
TTITLE8=Rock and roll féreg
TTITLE9=Gyáva vagy szeretni
EXTD=
EXTT0=
EXTT1=
EXTT2=
EXTT3=
EXTT4=
EXTT5=
EXTT6=
EXTT7=
EXTT8=
EXTT9=
PLAYORDER=
